<?xml version="1.0" ?><!-- Uploaded to: SVG Repo, www.svgrepo.com, Generator: SVG Repo Mixer Tools -->
<svg width="800px" height="800px" viewBox="0 0 64 64" data-name="Layer 1" id="Layer_1" xmlns="http://www.w3.org/2000/svg"><defs><style>.cls-1{fill:#0074ff;}.cls-2{fill:#ffb300;}</style></defs><title/><path class="cls-1" d="M40.79,56H14.9a2,2,0,0,1-2-2V51.57a2,2,0,1,1,4,0V52H38.79V20.31H16.9V42.25a2,2,0,1,1-4,0V18.31a2,2,0,0,1,2-2H40.79a2,2,0,0,1,2,2V54A2,2,0,0,1,40.79,56Z"/><path class="cls-2" d="M49.1,47.69H46.5a2,2,0,0,1,0-4h.6V12H25.21v.5a2,2,0,0,1-4,0V10a2,2,0,0,1,2-2H49.1a2,2,0,0,1,2,2V45.69A2,2,0,0,1,49.1,47.69Z"/></svg>